# xmcd
#
# Track frame offsets:
#	151
#	19756
#	35841
#	51548
#	67397
#	78968
#	92501
#	105656
#	117605
#	132112
#	148941
#
# Disc length: 2151 seconds
#
# Revision: 1
# Processed by: cddbd v1.5.2PL0 Copyright (c) Steve Scherf et al.
# Submitted via: audiograbber 1.83.01
#
DISCID=a508650b
DTITLE=Jaime Beaver - Shade Of Blue
DYEAR=1998
DGENRE=Country
TTITLE0=Cool Country
TTITLE1=Lighter Shade Of Blue
TTITLE2=Achy Breack Heartburn
TTITLE3=One Last Kiss
TTITLE4=Who Dunnit Lovers Crime
TTITLE5=You Remind Me Of A Heartache I Once Knew
TTITLE6=Last Till I Hold You Again
TTITLE7=Rockin My Baby
TTITLE8=Mamma Could Tell
TTITLE9=I Miss You
TTITLE10=Saving You Just For Me
EXTD=
EXTT0=
EXTT1=
EXTT2=
EXTT3=
EXTT4=
EXTT5=
EXTT6=
EXTT7=
EXTT8=
EXTT9=
EXTT10=
PLAYORDER=
